{
  "accessors": [
    {
      "bufferView": 2,
      "componentType": 5126,
      "count": 1284,
      "max": [
        16.722211837768555,
        22.622568130493164,
        25.710264205932617
      ],
      "min": [
        -16.722211837768555,
        12.826860427856445,
        16.10466766357422
      ],
      "type": "VEC3"
    },
    {
      "bufferView": 2,
      "byteOffset": 15408,
      "componentType": 5126,
      "count": 1284,
      "max": [
        0.9981783032417297,
        0.9952410459518433,
        0.9968043565750122
      ],
      "min": [
        -0.9981783032417297,
        -0.9952410459518433,
        -0.9952692985534668
      ],
      "type": "VEC3"
    },
    {
      "bufferView": 1,
      "componentType": 5126,
      "count": 1284,
      "max": [
        0.6788984537124634,
        0.999882161617279
      ],
      "min": [
        0.00011783136869780719,
        0.00011783136869780719
      ],
      "type": "VEC2"
    },
    {
      "bufferView": 0,
      "componentType": 5125,
      "count": 6912,
      "type": "SCALAR"
    },
    {
      "bufferView": 2,
      "byteOffset": 30816,
      "componentType": 5126,
      "count": 1148,
      "max": [
        21.4233455657959,
        31.047571182250977,
        30.63237762451172
      ],
      "min": [
        -21.4233455657959,
        22.428207397460938,
        22.948984146118164
      ],
      "type": "VEC3"
    },
    {
      "bufferView": 2,
      "byteOffset": 44592,
      "componentType": 5126,
      "count": 1148,
      "max": [
        0.9668334126472473,
        0.9986032843589783,
        0.9999368190765381
      ],
      "min": [
        -0.9668334126472473,
        -0.9769559502601624,
        -0.9683098793029785
      ],
      "type": "VEC3"
    },
    {
      "bufferView": 3,
      "componentType": 5126,
      "count": 1148,
      "max": [
        0.9971127510070801,
        0.8225283026695251,
        0.9955309629440308,
        1.0
      ],
      "min": [
        -0.9787319898605347,
        -0.9996881484985352,
        -0.9593120217323303,
        1.0
      ],
      "type": "VEC4"
    },
    {
      "bufferView": 1,
      "byteOffset": 10272,
      "componentType": 5126,
      "count": 1148,
      "max": [
        0.7142928242683411,
        0.9998806715011597
      ],
      "min": [
        0.00011940346303163096,
        0.00011940346303163096
      ],
      "type": "VEC2"
    },
    {
      "bufferView": 1,
      "byteOffset": 19456,
      "componentType": 5126,
      "count": 1148,
      "max": [
        0.7142928242683411,
        0.9998806715011597
      ],
      "min": [
        0.00011940346303163096,
        0.00011940346303163096
      ],
      "type": "VEC2"
    },
    {
      "bufferView": 1,
      "byteOffset": 28640,
      "componentType": 5126,
      "count": 1148,
      "max": [
        0.7142928242683411,
        0.9998806715011597
      ],
      "min": [
        0.00011940346303163096,
        0.00011940346303163096
      ],
      "type": "VEC2"
    },
    {
      "bufferView": 0,
      "byteOffset": 27648,
      "componentType": 5125,
      "count": 6336,
      "type": "SCALAR"
    },
    {
      "bufferView": 2,
      "byteOffset": 58368,
      "componentType": 5126,
      "count": 12386,
      "max": [
        34.900211334228516,
        47.27504348754883,
        44.795501708984375
      ],
      "min": [
        -34.900211334228516,
        -25.347869873046875,
        -36.104042053222656
      ],
      "type": "VEC3"
    },
    {
      "bufferView": 2,
      "byteOffset": 207000,
      "componentType": 5126,
      "count": 12386,
      "max": [
        0.9998221397399902,
        0.9999946355819702,
        0.9995379447937012
      ],
      "min": [
        -0.9998221397399902,
        -0.9999775886535645,
        -0.9999977350234985
      ],
      "type": "VEC3"
    },
    {
      "bufferView": 3,
      "byteOffset": 18368,
      "componentType": 5126,
      "count": 12386,
      "max": [
        0.9999995231628418,
        0.9643309712409973,
        0.9995296001434326,
        1.0
      ],
      "min": [
        -0.9972435235977173,
        -0.9999977350234985,
        -0.9999946355819702,
        -1.0
      ],
      "type": "VEC4"
    },
    {
      "bufferView": 1,
      "byteOffset": 37824,
      "componentType": 5126,
      "count": 12386,
      "max": [
        0.999839186668396,
        0.9824268817901611
      ],
      "min": [
        0.013758808374404907,
        0.00016081378271337599
      ],
      "type": "VEC2"
    },
    {
      "bufferView": 1,
      "byteOffset": 136912,
      "componentType": 5126,
      "count": 12386,
      "max": [
        0.999839186668396,
        0.9824268817901611
      ],
      "min": [
        0.013758808374404907,
        0.00016081378271337599
      ],
      "type": "VEC2"
    },
    {
      "bufferView": 1,
      "byteOffset": 236000,
      "componentType": 5126,
      "count": 12386,
      "max": [
        0.999839186668396,
        0.9824268817901611
      ],
      "min": [
        0.013758808374404907,
        0.00016081378271337599
      ],
      "type": "VEC2"
    },
    {
      "bufferView": 0,
      "byteOffset": 52992,
      "componentType": 5125,
      "count": 71922,
      "type": "SCALAR"
    }
  ],
  "asset": {
    "extras": {
      "author": "Sampo (https://sketchfab.com/pellemasi)",
      "license": "CC-BY-4.0 (http://creativecommons.org/licenses/by/4.0/)",
      "source": "https://sketchfab.com/3d-models/stylized-big-nose-face-bf290bd3935d42c8924b367d1b5a42c8",
      "title": "Stylized Big Nose Face"
    },
    "generator": "Sketchfab-12.67.0",
    "version": "2.0"
  },
  "bufferViews": [
    {
      "buffer": 0,
      "byteLength": 340680,
      "name": "floatBufferViews",
      "target": 34963
    },
    {
      "buffer": 0,
      "byteLength": 335088,
      "byteOffset": 340680,
      "byteStride": 8,
      "name": "floatBufferViews",
      "target": 34962
    },
    {
      "buffer": 0,
      "byteLength": 355632,
      "byteOffset": 675768,
      "byteStride": 12,
      "name": "floatBufferViews",
      "target": 34962
    },
    {
      "buffer": 0,
      "byteLength": 216544,
      "byteOffset": 1031400,
      "byteStride": 16,
      "name": "floatBufferViews",
      "target": 34962
    }
  ],
  "buffers": [
    {
      "byteLength": 1247944,
      "uri": "scene.bin"
    }
  ],
  "images": [
    {
      "uri": "textures/Eyes_baseColor.png"
    },
    {
      "uri": "textures/BigNoseBrown_baseColor.png"
    },
    {
      "uri": "textures/BigNoseBrown_metallicRoughness.png"
    },
    {
      "uri": "textures/BigNoseBrown_normal.png"
    },
    {
      "uri": "textures/StylizedBigNose_baseColor.png"
    },
    {
      "uri": "textures/StylizedBigNose_metallicRoughness.png"
    },
    {
      "uri": "textures/StylizedBigNose_normal.png"
    }
  ],
  "materials": [
    {
      "doubleSided": true,
      "name": "Eyes",
      "pbrMetallicRoughness": {
        "baseColorTexture": {
          "index": 0
        },
        "metallicFactor": 0.0,
        "roughnessFactor": 0.7470177872
      }
    },
    {
      "doubleSided": true,
      "name": "BigNoseBrown",
      "normalTexture": {
        "index": 3
      },
      "occlusionTexture": {
        "index": 2
      },
      "pbrMetallicRoughness": {
        "baseColorTexture": {
          "index": 1
        },
        "metallicFactor": 0.0,
        "metallicRoughnessTexture": {
          "index": 2
        }
      }
    },
    {
      "doubleSided": true,
      "name": "StylizedBigNose",
      "normalTexture": {
        "index": 6
      },
      "occlusionTexture": {
        "index": 5
      },
      "pbrMetallicRoughness": {
        "baseColorTexture": {
          "index": 4
        },
        "metallicFactor": 0.0,
        "metallicRoughnessTexture": {
          "index": 5
        }
      }
    }
  ],
  "meshes": [
    {
      "name": "eyeRend.003_Eyes_0",
      "primitives": [
        {
          "attributes": {
            "NORMAL": 1,
            "POSITION": 0,
            "TEXCOORD_0": 2
          },
          "indices": 3,
          "material": 0,
          "mode": 4
        }
      ]
    },
    {
      "name": "Plane_BigNoseBrown_0",
      "primitives": [
        {
          "attributes": {
            "NORMAL": 5,
            "POSITION": 4,
            "TANGENT": 6,
            "TEXCOORD_0": 7,
            "TEXCOORD_1": 8,
            "TEXCOORD_2": 9
          },
          "indices": 10,
          "material": 1,
          "mode": 4
        }
      ]
    },
    {
      "name": "FortniteNoseLowboi.001_StylizedBigNose_0",
      "primitives": [
        {
          "attributes": {
            "NORMAL": 12,
            "POSITION": 11,
            "TANGENT": 13,
            "TEXCOORD_0": 14,
            "TEXCOORD_1": 15,
            "TEXCOORD_2": 16
          },
          "indices": 17,
          "material": 2,
          "mode": 4
        }
      ]
    }
  ],
  "nodes": [
    {
      "children": [
        1
      ],
      "matrix": [
        1.0,
        0.0,
        0.0,
        0.0,
        0.0,
        2.220446049250313e-16,
        -1.0,
        0.0,
        0.0,
        1.0,
        2.220446049250313e-16,
        0.0,
        0.0,
        0.0,
        0.0,
        1.0
      ],
      "name": "Sketchfab_model"
    },
    {
      "children": [
        2
      ],
      "matrix": [
        1.0,
        0.0,
        0.0,
        0.0,
        0.0,
        0.0,
        1.0,
        0.0,
        0.0,
        -1.0,
        0.0,
        0.0,
        0.0,
        0.0,
        0.0,
        1.0
      ],
      "name": "FortniteNose.fbx"
    },
    {
      "children": [
        3,
        5,
        7
      ],
      "name": "RootNode"
    },
    {
      "children": [
        4
      ],
      "name": "eyeRend.003"
    },
    {
      "mesh": 0,
      "name": "eyeRend.003_Eyes_0"
    },
    {
      "children": [
        6
      ],
      "name": "Plane"
    },
    {
      "mesh": 1,
      "name": "Plane_BigNoseBrown_0"
    },
    {
      "children": [
        8
      ],
      "name": "FortniteNoseLowboi.001"
    },
    {
      "mesh": 2,
      "name": "FortniteNoseLowboi.001_StylizedBigNose_0"
    }
  ],
  "samplers": [
    {
      "magFilter": 9729,
      "minFilter": 9987,
      "wrapS": 10497,
      "wrapT": 10497
    }
  ],
  "scene": 0,
  "scenes": [
    {
      "name": "Sketchfab_Scene",
      "nodes": [
        0
      ]
    }
  ],
  "textures": [
    {
      "sampler": 0,
      "source": 0
    },
    {
      "sampler": 0,
      "source": 1
    },
    {
      "sampler": 0,
      "source": 2
    },
    {
      "sampler": 0,
      "source": 3
    },
    {
      "sampler": 0,
      "source": 4
    },
    {
      "sampler": 0,
      "source": 5
    },
    {
      "sampler": 0,
      "source": 6
    }
  ]
}
